<svg width="83" height="17" viewBox="0 0 83 17" fill="none" xmlns="http://www.w3.org/2000/svg">
<g clip-path="url(#clip0_1_1196)">
<path d="M7.61864 1.12148C8.31766 1.12148 8.9629 1.17526 9.55438 1.33657C10.1459 1.44411 10.6298 1.65919 11.06 1.92804C11.4901 2.19689 11.8127 2.57329 12.0278 3.05722C12.2429 3.54116 12.3504 4.13263 12.3504 4.77788C12.3504 5.53067 12.1891 6.17591 11.8127 6.65985C11.4901 7.14378 10.9524 7.57394 10.3072 7.89657C11.2213 8.16542 11.9203 8.64935 12.3504 9.2946C12.7806 9.93985 13.0495 10.7464 13.0495 11.6605C13.0495 12.4133 12.8881 13.0585 12.6193 13.5962C12.3504 14.1339 11.9203 14.6179 11.4363 14.9405C10.9524 15.2631 10.3609 15.532 9.71569 15.6933C9.07044 15.8546 8.4252 15.9621 7.77995 15.9621H0.574705V1.12148H7.61864ZM7.18848 7.14378C7.77995 7.14378 8.26389 6.98247 8.64028 6.71362C9.01667 6.44476 9.17798 5.96083 9.17798 5.36935C9.17798 5.04673 9.12421 4.72411 9.01667 4.50903C8.90913 4.29394 8.74782 4.13263 8.53274 3.97132C8.31766 3.86378 8.10257 3.75624 7.83372 3.70247C7.56487 3.6487 7.29602 3.6487 6.97339 3.6487H3.85471V7.14378H7.18848ZM7.34979 13.4887C7.67241 13.4887 7.99503 13.4349 8.26389 13.3812C8.53274 13.3274 8.80159 13.2198 9.01667 13.0585C9.23175 12.8972 9.39307 12.7359 9.55438 12.4671C9.66192 12.1982 9.76946 11.8756 9.76946 11.4992C9.76946 10.7464 9.55438 10.2087 9.12421 9.8323C8.69405 9.50968 8.10257 9.34837 7.40356 9.34837H3.85471V13.4887H7.34979ZM17.7275 13.4349C18.1577 13.8651 18.8029 14.0802 19.6632 14.0802C20.2547 14.0802 20.7924 13.9189 21.2226 13.65C21.6527 13.3274 21.9216 13.0048 22.0291 12.6821H24.6639C24.2337 13.9726 23.5885 14.8867 22.7281 15.4782C21.8678 16.0159 20.8462 16.3385 19.6095 16.3385C18.7491 16.3385 17.9963 16.1772 17.2973 15.9084C16.5983 15.6395 16.0606 15.2631 15.5767 14.7254C15.0927 14.2415 14.7163 13.65 14.5013 12.951C14.2324 12.252 14.1249 11.4992 14.1249 10.6389C14.1249 9.8323 14.2324 9.07952 14.5013 8.3805C14.7701 7.68149 15.1465 7.09001 15.6304 6.5523C16.1144 6.06837 16.7059 5.63821 17.3511 5.36935C18.0501 5.1005 18.7491 4.93919 19.6095 4.93919C20.5236 4.93919 21.3301 5.1005 22.0291 5.47689C22.7281 5.85329 23.2659 6.28345 23.696 6.9287C24.1262 7.52017 24.4488 8.21919 24.6639 8.97198C24.7714 9.72476 24.8252 10.4776 24.7714 11.3379H16.9747C16.9747 12.1982 17.2973 13.0048 17.7275 13.4349ZM21.115 7.78903C20.7386 7.41263 20.1472 7.19755 19.4481 7.19755C18.9642 7.19755 18.5878 7.30509 18.2652 7.4664C17.9426 7.62771 17.7275 7.8428 17.5124 8.05788C17.2973 8.27296 17.1898 8.54181 17.136 8.81067C17.0822 9.07952 17.0285 9.2946 17.0285 9.50968H21.8678C21.7603 8.70312 21.4914 8.16542 21.115 7.78903ZM28.9655 1.12148V6.71362H29.0193C29.3957 6.06837 29.8796 5.63821 30.4711 5.36935C31.0626 5.1005 31.6003 4.93919 32.1918 4.93919C32.9983 4.93919 33.6436 5.04673 34.1275 5.26181C34.6114 5.47689 35.0416 5.79952 35.3104 6.17591C35.5793 6.5523 35.7944 7.03624 35.9019 7.57394C36.0095 8.11165 36.0632 8.70312 36.0632 9.40214V16.0159H33.1059V9.93985C33.1059 9.02575 32.9445 8.3805 32.6757 7.95034C32.4068 7.52017 31.9229 7.30509 31.2239 7.30509C30.4173 7.30509 29.8259 7.57394 29.5032 8.00411C29.1268 8.48804 28.9655 9.2946 28.9655 10.37V16.0159H26.0081V1.12148H28.9655ZM38.2141 6.82116C38.5367 6.33722 38.9131 6.0146 39.397 5.69198C39.8809 5.42312 40.4186 5.20804 41.0101 5.1005C41.6016 4.99296 42.1931 4.93919 42.7845 4.93919C43.3222 4.93919 43.86 4.99296 44.4514 5.04673C44.9891 5.1005 45.5268 5.26181 45.957 5.47689C46.4409 5.69198 46.7636 6.0146 47.0862 6.39099C47.355 6.76739 47.5163 7.30509 47.5163 7.95034V13.5962C47.5163 14.0802 47.5701 14.5641 47.6239 14.9943C47.6777 15.4244 47.839 15.8008 48.0003 16.0159H44.9891C44.8816 15.9084 44.8278 15.6933 44.774 15.532C44.7203 15.3707 44.7203 15.1556 44.7203 14.9943C44.2363 15.4782 43.6986 15.8008 43.0534 16.0159C42.4082 16.231 41.7629 16.2848 41.1177 16.2848C40.58 16.2848 40.1498 16.231 39.6659 16.0697C39.2357 15.9621 38.8593 15.7471 38.4829 15.4782C38.1603 15.2094 37.8914 14.8867 37.6763 14.4566C37.515 14.0264 37.4075 13.5962 37.4075 13.0048C37.4075 12.4133 37.515 11.8756 37.7301 11.4992C37.9452 11.1228 38.2141 10.8002 38.5367 10.5313C38.8593 10.3162 39.2895 10.1012 39.7196 9.99362C40.1498 9.88608 40.58 9.77853 41.0639 9.72476L42.3544 9.56345C42.7845 9.50968 43.1609 9.45591 43.4836 9.40214C43.8062 9.2946 44.075 9.18706 44.2901 9.02575C44.5052 8.86444 44.559 8.64935 44.559 8.32673C44.559 8.00411 44.5052 7.73526 44.3977 7.57394C44.2901 7.41263 44.1288 7.25132 43.9675 7.14378C43.8062 7.03624 43.5911 6.98247 43.376 6.9287C43.1609 6.87493 42.8921 6.87493 42.6232 6.87493C42.0318 6.87493 41.6016 6.98247 41.279 7.25132C40.9563 7.52017 40.7413 7.95034 40.6875 8.48804H37.7301C37.7301 7.8428 37.9452 7.25132 38.2141 6.82116ZM44.075 11.0153C43.9137 11.069 43.6986 11.1228 43.4836 11.1766C43.2685 11.2303 43.0534 11.2303 42.7845 11.2841C42.5695 11.3379 42.3006 11.3379 42.0855 11.3916L41.4403 11.553C41.2252 11.6067 41.0101 11.7143 40.9026 11.8218C40.7413 11.9294 40.6337 12.0907 40.5262 12.252C40.3649 12.4671 40.3649 12.6821 40.3649 12.951C40.3649 13.2198 40.4186 13.4349 40.5262 13.5962C40.6337 13.7576 40.7413 13.9189 40.9026 14.0264C41.0639 14.1339 41.279 14.1877 41.4941 14.2415C41.7091 14.2953 41.9242 14.2953 42.1931 14.2953C42.7845 14.2953 43.2147 14.1877 43.5373 14.0264C43.86 13.8113 44.075 13.5962 44.2363 13.3274C44.3977 13.0585 44.5052 12.7897 44.5052 12.5208C44.559 12.252 44.559 12.0369 44.559 11.8756V10.7464C44.3977 10.8539 44.2363 10.9615 44.075 11.0153ZM51.9793 5.20804V6.71362H52.0331C52.4095 6.06837 52.8934 5.63821 53.4849 5.36935C54.0763 5.1005 54.7216 4.93919 55.3131 4.93919C56.1196 4.93919 56.7649 5.04673 57.2488 5.26181C57.7865 5.47689 58.1629 5.79952 58.4318 6.17591C58.7006 6.5523 58.9157 7.03624 59.077 7.57394C59.1845 8.11165 59.2383 8.70312 59.2383 9.40214V16.0159H56.2809V9.93985C56.2809 9.02575 56.1196 8.3805 55.8508 7.95034C55.5819 7.52017 55.098 7.25132 54.3452 7.25132C53.5386 7.25132 52.9472 7.57394 52.5708 8.05788C52.1944 8.54181 52.0331 9.34837 52.0331 10.4238V16.0697H49.0757V5.20804H51.9793ZM65.8521 7.14378C65.3682 7.14378 64.9918 7.25132 64.6691 7.4664C64.3465 7.68149 64.0777 7.95034 63.8626 8.32673C63.6475 8.64935 63.54 9.02575 63.4324 9.45591C63.3249 9.88608 63.3249 10.2625 63.3249 10.6926C63.3249 11.069 63.3786 11.4992 63.4324 11.8756C63.54 12.3057 63.6475 12.6284 63.8626 12.951C64.0777 13.2736 64.2927 13.5425 64.6154 13.7576C64.938 13.9726 65.3144 14.0802 65.7983 14.0802C66.4973 14.0802 67.035 13.8651 67.4652 13.4887C67.8416 13.1123 68.1104 12.5746 68.1642 11.8756H71.0141C70.799 13.3274 70.2613 14.4028 69.3472 15.1556C68.4331 15.9084 67.2501 16.2848 65.7983 16.2848C64.9918 16.2848 64.239 16.1235 63.5937 15.8546C62.8947 15.5857 62.357 15.2094 61.8731 14.7254C61.3891 14.2415 61.0127 13.65 60.7439 13.0048C60.475 12.3057 60.3675 11.6067 60.3675 10.8002C60.3675 9.93985 60.475 9.18706 60.7439 8.48804C61.0127 7.78903 61.3354 7.14378 61.8193 6.60608C62.3032 6.06837 62.8947 5.69198 63.54 5.36935C64.239 5.1005 64.9918 4.93919 65.8521 4.93919C66.4973 4.93919 67.0888 5.04673 67.6803 5.20804C68.2718 5.36935 68.8095 5.63821 69.2396 5.96083C69.7236 6.28345 70.1 6.71362 70.3688 7.25132C70.6377 7.73526 70.799 8.3805 70.8527 9.07952H67.9491C67.8416 7.78903 67.1426 7.14378 65.8521 7.14378ZM16.3832 2.14312H22.4055V3.59493H16.3832V2.14312ZM75.477 13.4349C75.9072 13.8651 76.6062 14.0802 77.4127 14.0802C78.0042 14.0802 78.5419 13.9189 78.9721 13.65C79.4023 13.3274 79.6711 13.0048 79.7786 12.6821H82.3596C81.9295 13.9726 81.2842 14.8867 80.4239 15.4782C79.5636 16.0159 78.5419 16.3385 77.3052 16.3385C76.4449 16.3385 75.6921 16.1772 74.9931 15.9084C74.2941 15.6395 73.7563 15.2631 73.2724 14.7254C72.7885 14.2415 72.4121 13.65 72.197 12.951C71.9282 12.252 71.8206 11.4992 71.8206 10.6389C71.8206 9.8323 71.9282 9.07952 72.197 8.3805C72.4659 7.68149 72.8423 7.09001 73.3262 6.5523C73.8101 6.06837 74.4016 5.63821 75.0468 5.36935C75.7459 5.1005 76.4986 4.93919 77.3052 4.93919C78.2193 4.93919 79.0259 5.1005 79.6711 5.47689C80.3701 5.85329 80.9078 6.28345 81.338 6.9287C81.7681 7.52017 82.0908 8.21919 82.3059 8.97198C82.5209 9.72476 82.5747 10.5313 82.5209 11.3916H74.7242C74.7242 12.1982 75.0468 13.0048 75.477 13.4349ZM78.9183 7.78903C78.5419 7.41263 77.9505 7.19755 77.2514 7.19755C76.7675 7.19755 76.3911 7.30509 76.0685 7.4664C75.7459 7.62771 75.477 7.8428 75.3157 8.05788C75.1544 8.27296 74.9931 8.54181 74.9393 8.81067C74.8855 9.07952 74.8318 9.2946 74.8318 9.50968H79.6711C79.5098 8.70312 79.2409 8.16542 78.9183 7.78903Z" fill="black"/>
</g>
<defs>
<clipPath id="clip0_1_1196">
<rect width="82" height="16" fill="white" transform="translate(0.574707 0.703125)"/>
</clipPath>
</defs>
</svg>
